<mxfile host="app.diagrams.net" modified="2024-06-21T13:00:01.345Z" agent="Mozilla/5.0 (Windows NT 10.0; Win64; x64) AppleWebKit/537.36 (KHTML, like Gecko) Chrome/126.0.0.0 Safari/537.36" etag="bVFBQXS9IH9ZcD5IXBjn" version="24.6.0" type="device">
  <diagram name="PÃ¡gina-1" id="I1Vphs8X0quOVDpspF65">
    <mxGraphModel dx="989" dy="1683" grid="1" gridSize="10" guides="1" tooltips="1" connect="1" arrows="1" fold="1" page="1" pageScale="1" pageWidth="827" pageHeight="1169" math="0" shadow="0">
      <root>
        <mxCell id="0" />
        <mxCell id="1" parent="0" />
        <mxCell id="FcsG6BvdHj3dav3wTBbC-1" value="Candidato" style="swimlane;fontStyle=0;align=center;verticalAlign=top;childLayout=stackLayout;horizontal=1;startSize=30;horizontalStack=0;resizeParent=1;resizeParentMax=0;resizeLast=0;collapsible=0;marginBottom=0;html=1;whiteSpace=wrap;" vertex="1" parent="1">
          <mxGeometry x="290" y="-520" width="230" height="138" as="geometry" />
        </mxCell>
        <mxCell id="FcsG6BvdHj3dav3wTBbC-26" value="&lt;div&gt;&lt;br&gt;&lt;/div&gt;&lt;div&gt;&lt;br&gt;&lt;/div&gt;" style="text;html=1;strokeColor=none;fillColor=none;align=left;verticalAlign=middle;spacingLeft=4;spacingRight=4;overflow=hidden;rotatable=0;points=[[0,0.5],[1,0.5]];portConstraint=eastwest;whiteSpace=wrap;" vertex="1" parent="FcsG6BvdHj3dav3wTBbC-1">
          <mxGeometry y="30" width="230" height="20" as="geometry" />
        </mxCell>
        <mxCell id="FcsG6BvdHj3dav3wTBbC-4" value="- nome : String&amp;nbsp;" style="text;html=1;strokeColor=none;fillColor=none;align=left;verticalAlign=middle;spacingLeft=4;spacingRight=4;overflow=hidden;rotatable=0;points=[[0,0.5],[1,0.5]];portConstraint=eastwest;fontColor=#808080;whiteSpace=wrap;" vertex="1" parent="FcsG6BvdHj3dav3wTBbC-1">
          <mxGeometry y="50" width="230" height="20" as="geometry" />
        </mxCell>
        <mxCell id="FcsG6BvdHj3dav3wTBbC-3" value="&lt;div&gt;&lt;br&gt;&lt;/div&gt;&lt;div&gt;&lt;br&gt;&lt;/div&gt;" style="text;html=1;strokeColor=none;fillColor=none;align=left;verticalAlign=middle;spacingLeft=4;spacingRight=4;overflow=hidden;rotatable=0;points=[[0,0.5],[1,0.5]];portConstraint=eastwest;whiteSpace=wrap;" vertex="1" parent="FcsG6BvdHj3dav3wTBbC-1">
          <mxGeometry y="70" width="230" height="20" as="geometry" />
        </mxCell>
        <mxCell id="FcsG6BvdHj3dav3wTBbC-5" value="&lt;div&gt;&lt;br&gt;&lt;/div&gt;&lt;div&gt;&lt;br&gt;&lt;/div&gt;" style="text;html=1;strokeColor=none;fillColor=none;align=left;verticalAlign=middle;spacingLeft=4;spacingRight=4;overflow=hidden;rotatable=0;points=[[0,0.5],[1,0.5]];portConstraint=eastwest;whiteSpace=wrap;" vertex="1" parent="FcsG6BvdHj3dav3wTBbC-1">
          <mxGeometry y="90" width="230" height="20" as="geometry" />
        </mxCell>
        <mxCell id="FcsG6BvdHj3dav3wTBbC-6" value="" style="line;strokeWidth=1;fillColor=none;align=left;verticalAlign=middle;spacingTop=-1;spacingLeft=3;spacingRight=3;rotatable=0;labelPosition=right;points=[];portConstraint=eastwest;" vertex="1" parent="FcsG6BvdHj3dav3wTBbC-1">
          <mxGeometry y="110" width="230" height="8" as="geometry" />
        </mxCell>
        <mxCell id="FcsG6BvdHj3dav3wTBbC-8" value="+ Ligar(numeroTelefone : int): void" style="text;html=1;strokeColor=none;fillColor=none;align=left;verticalAlign=middle;spacingLeft=4;spacingRight=4;overflow=hidden;rotatable=0;points=[[0,0.5],[1,0.5]];portConstraint=eastwest;whiteSpace=wrap;" vertex="1" parent="FcsG6BvdHj3dav3wTBbC-1">
          <mxGeometry y="118" width="230" height="20" as="geometry" />
        </mxCell>
        <mxCell id="FcsG6BvdHj3dav3wTBbC-10" value="Telefone" style="swimlane;fontStyle=0;align=center;verticalAlign=top;childLayout=stackLayout;horizontal=1;startSize=30;horizontalStack=0;resizeParent=1;resizeParentMax=0;resizeLast=0;collapsible=0;marginBottom=0;html=1;whiteSpace=wrap;" vertex="1" parent="1">
          <mxGeometry x="20" y="-440" width="140" height="38" as="geometry" />
        </mxCell>
        <mxCell id="FcsG6BvdHj3dav3wTBbC-15" value="" style="line;strokeWidth=1;fillColor=none;align=left;verticalAlign=middle;spacingTop=-1;spacingLeft=3;spacingRight=3;rotatable=0;labelPosition=right;points=[];portConstraint=eastwest;" vertex="1" parent="FcsG6BvdHj3dav3wTBbC-10">
          <mxGeometry y="30" width="140" height="8" as="geometry" />
        </mxCell>
        <mxCell id="FcsG6BvdHj3dav3wTBbC-31" value="Admissao" style="swimlane;fontStyle=1;align=center;verticalAlign=middle;childLayout=stackLayout;horizontal=1;startSize=29;horizontalStack=0;resizeParent=1;resizeParentMax=0;resizeLast=0;collapsible=0;marginBottom=0;html=1;whiteSpace=wrap;" vertex="1" parent="1">
          <mxGeometry x="414" y="-740" width="140" height="43" as="geometry" />
        </mxCell>
        <mxCell id="FcsG6BvdHj3dav3wTBbC-41" value="" style="text;strokeColor=none;fillColor=none;align=left;verticalAlign=middle;spacingTop=-1;spacingLeft=4;spacingRight=4;rotatable=0;labelPosition=right;points=[];portConstraint=eastwest;" vertex="1" parent="FcsG6BvdHj3dav3wTBbC-31">
          <mxGeometry y="29" width="140" height="14" as="geometry" />
        </mxCell>
        <mxCell id="FcsG6BvdHj3dav3wTBbC-39" value="1" style="endArrow=open;html=1;endSize=12;startArrow=diamondThin;startSize=14;startFill=1;edgeStyle=orthogonalEdgeStyle;align=left;verticalAlign=bottom;rounded=0;exitX=0;exitY=0.5;exitDx=0;exitDy=0;" edge="1" parent="1" source="FcsG6BvdHj3dav3wTBbC-31" target="FcsG6BvdHj3dav3wTBbC-1">
          <mxGeometry x="0.809" y="-25" relative="1" as="geometry">
            <mxPoint x="370" y="-690" as="sourcePoint" />
            <mxPoint x="410" y="-560" as="targetPoint" />
            <mxPoint as="offset" />
          </mxGeometry>
        </mxCell>
        <mxCell id="FcsG6BvdHj3dav3wTBbC-43" value="telefones" style="endArrow=open;html=1;endSize=12;startArrow=diamondThin;startSize=14;startFill=0;edgeStyle=orthogonalEdgeStyle;rounded=0;entryX=1;entryY=0.25;entryDx=0;entryDy=0;exitX=-0.004;exitY=0.13;exitDx=0;exitDy=0;exitPerimeter=0;" edge="1" parent="1" source="FcsG6BvdHj3dav3wTBbC-1" target="FcsG6BvdHj3dav3wTBbC-10">
          <mxGeometry relative="1" as="geometry">
            <mxPoint x="70" y="-530" as="sourcePoint" />
            <mxPoint x="230" y="-530" as="targetPoint" />
          </mxGeometry>
        </mxCell>
        <mxCell id="FcsG6BvdHj3dav3wTBbC-44" value="&lt;font style=&quot;font-size: 20px;&quot;&gt;..*&lt;/font&gt;" style="edgeLabel;resizable=0;html=1;align=left;verticalAlign=top;" connectable="0" vertex="1" parent="FcsG6BvdHj3dav3wTBbC-43">
          <mxGeometry x="-1" relative="1" as="geometry">
            <mxPoint x="-39" y="-48" as="offset" />
          </mxGeometry>
        </mxCell>
        <mxCell id="FcsG6BvdHj3dav3wTBbC-45" value="1" style="edgeLabel;resizable=0;html=1;align=right;verticalAlign=top;" connectable="0" vertex="1" parent="FcsG6BvdHj3dav3wTBbC-43">
          <mxGeometry x="1" relative="1" as="geometry">
            <mxPoint x="31" y="-23" as="offset" />
          </mxGeometry>
        </mxCell>
        <mxCell id="FcsG6BvdHj3dav3wTBbC-46" value="Endereco" style="swimlane;fontStyle=0;align=center;verticalAlign=top;childLayout=stackLayout;horizontal=1;startSize=30;horizontalStack=0;resizeParent=1;resizeParentMax=0;resizeLast=0;collapsible=0;marginBottom=0;html=1;whiteSpace=wrap;" vertex="1" parent="1">
          <mxGeometry x="335" y="-280" width="140" height="38" as="geometry" />
        </mxCell>
        <mxCell id="FcsG6BvdHj3dav3wTBbC-47" value="" style="line;strokeWidth=1;fillColor=none;align=left;verticalAlign=middle;spacingTop=-1;spacingLeft=3;spacingRight=3;rotatable=0;labelPosition=right;points=[];portConstraint=eastwest;" vertex="1" parent="FcsG6BvdHj3dav3wTBbC-46">
          <mxGeometry y="30" width="140" height="8" as="geometry" />
        </mxCell>
        <mxCell id="FcsG6BvdHj3dav3wTBbC-48" value="Profissao" style="swimlane;fontStyle=0;align=center;verticalAlign=top;childLayout=stackLayout;horizontal=1;startSize=30;horizontalStack=0;resizeParent=1;resizeParentMax=0;resizeLast=0;collapsible=0;marginBottom=0;html=1;whiteSpace=wrap;" vertex="1" parent="1">
          <mxGeometry x="630" y="-490" width="140" height="38" as="geometry" />
        </mxCell>
        <mxCell id="FcsG6BvdHj3dav3wTBbC-49" value="" style="line;strokeWidth=1;fillColor=none;align=left;verticalAlign=middle;spacingTop=-1;spacingLeft=3;spacingRight=3;rotatable=0;labelPosition=right;points=[];portConstraint=eastwest;" vertex="1" parent="FcsG6BvdHj3dav3wTBbC-48">
          <mxGeometry y="30" width="140" height="8" as="geometry" />
        </mxCell>
        <mxCell id="FcsG6BvdHj3dav3wTBbC-50" value="" style="endArrow=open;html=1;endSize=12;startArrow=diamondThin;startSize=14;startFill=0;edgeStyle=orthogonalEdgeStyle;rounded=0;entryX=0.824;entryY=0.066;entryDx=0;entryDy=0;entryPerimeter=0;" edge="1" parent="1" source="FcsG6BvdHj3dav3wTBbC-1" target="FcsG6BvdHj3dav3wTBbC-46">
          <mxGeometry x="0.0878" y="-58" relative="1" as="geometry">
            <mxPoint x="683" y="-330" as="sourcePoint" />
            <mxPoint x="430" y="-280" as="targetPoint" />
            <mxPoint as="offset" />
          </mxGeometry>
        </mxCell>
        <mxCell id="FcsG6BvdHj3dav3wTBbC-51" value="&lt;div&gt;&lt;br&gt;&lt;/div&gt;&lt;div&gt;&lt;br&gt;&lt;/div&gt;" style="edgeLabel;resizable=0;html=1;align=left;verticalAlign=top;" connectable="0" vertex="1" parent="FcsG6BvdHj3dav3wTBbC-50">
          <mxGeometry x="-1" relative="1" as="geometry">
            <mxPoint x="-39" y="-28" as="offset" />
          </mxGeometry>
        </mxCell>
        <mxCell id="FcsG6BvdHj3dav3wTBbC-52" value="1" style="edgeLabel;resizable=0;html=1;align=right;verticalAlign=top;" connectable="0" vertex="1" parent="FcsG6BvdHj3dav3wTBbC-50">
          <mxGeometry x="1" relative="1" as="geometry">
            <mxPoint x="31" y="-23" as="offset" />
          </mxGeometry>
        </mxCell>
        <mxCell id="FcsG6BvdHj3dav3wTBbC-53" value="" style="endArrow=open;html=1;endSize=12;startArrow=diamondThin;startSize=14;startFill=0;edgeStyle=orthogonalEdgeStyle;rounded=0;entryX=0;entryY=0.5;entryDx=0;entryDy=0;" edge="1" parent="1" target="FcsG6BvdHj3dav3wTBbC-48">
          <mxGeometry x="0.0878" y="-58" relative="1" as="geometry">
            <mxPoint x="520" y="-440" as="sourcePoint" />
            <mxPoint x="600" y="-470" as="targetPoint" />
            <mxPoint as="offset" />
          </mxGeometry>
        </mxCell>
        <mxCell id="FcsG6BvdHj3dav3wTBbC-54" value="&lt;div&gt;&lt;br&gt;&lt;/div&gt;&lt;div&gt;&lt;br&gt;&lt;/div&gt;" style="edgeLabel;resizable=0;html=1;align=left;verticalAlign=top;" connectable="0" vertex="1" parent="FcsG6BvdHj3dav3wTBbC-53">
          <mxGeometry x="-1" relative="1" as="geometry">
            <mxPoint x="-39" y="-28" as="offset" />
          </mxGeometry>
        </mxCell>
        <mxCell id="FcsG6BvdHj3dav3wTBbC-55" value="1" style="edgeLabel;resizable=0;html=1;align=right;verticalAlign=top;" connectable="0" vertex="1" parent="FcsG6BvdHj3dav3wTBbC-53">
          <mxGeometry x="1" relative="1" as="geometry">
            <mxPoint x="-30" y="-23" as="offset" />
          </mxGeometry>
        </mxCell>
        <mxCell id="FcsG6BvdHj3dav3wTBbC-56" value="0.." style="edgeLabel;resizable=0;html=1;align=right;verticalAlign=top;" connectable="0" vertex="1" parent="1">
          <mxGeometry x="553.9996580108494" y="-460" as="geometry" />
        </mxCell>
      </root>
    </mxGraphModel>
  </diagram>
</mxfile>
